<?xml version="1.0" encoding="utf-8"?>
<!-- Generator: Adobe Illustrator 22.0.1, SVG Export Plug-In . SVG Version: 6.00 Build 0)  -->
<svg version="1.1" id="Laag_1" xmlns="http://www.w3.org/2000/svg" xmlns:xlink="http://www.w3.org/1999/xlink" x="0px" y="0px"
	 viewBox="0 0 20 20" style="enable-background:new 0 0 20 20;" xml:space="preserve">
<style type="text/css">
	.st0{fill:#FFFFFF;stroke:#333333;stroke-width:1.5;stroke-miterlimit:10;}
	.st1{fill:#FFFFFF;}
	.st2{fill:#333333;stroke:#333333;stroke-width:0.75;stroke-miterlimit:10;}
</style>
<path class="st0" d="M15,10.8H5c-2.2,0-4-1.8-4-4l0,0c0-2.2,1.8-4,4-4h10c2.2,0,4,1.8,4,4l0,0C19,9,17.2,10.8,15,10.8z"/>
<polygon class="st1" points="10.3,7.1 10.2,11.3 9.1,11.6 8.4,12.9 8.4,15.6 10.3,17.6 12.6,18.3 14.4,18.3 16.2,17.9 16.7,17.2 
	17.4,15.2 17.4,13.3 17.1,11 16.4,10.4 15.3,9.7 14.8,9.2 13.6,9 13.3,8.6 12.5,8.3 11.9,8.3 11.9,7.1 11.7,6.2 10.9,6.1 10.9,6.5 
	"/>
<g>
	<path class="st2" d="M16.5,10H16c0-0.2-0.2-0.5-0.4-0.7c-0.2-0.2-0.5-0.4-1-0.4c-0.2,0-0.4,0-0.5,0.1c-0.1-0.2-0.2-0.3-0.3-0.4
		c-0.2-0.2-0.4-0.4-1-0.4c-0.2,0-0.4,0-0.4,0.1V6.8c0-0.5-0.4-1.2-1.2-1.2c-0.4,0-0.7,0.2-1,0.4C9.8,6.4,9.8,7.1,9.8,7.1v3.8
		c-0.5,0.1-1,0.3-1.2,0.5C8,12.1,8,12.9,8,14v0.6c0,1.2,0.6,1.9,1.2,2.5l0.3,0.4c1.2,1.1,2.1,1.4,4.5,1.4c2.6,0,3.7-1.4,3.7-4.5
		v-2.2C17.8,11.5,17.6,10.2,16.5,10L16.5,10z M16.9,12.1v2.3c0,3-1.2,3.6-2.8,3.6c-2.1,0-2.9-0.3-3.8-1.2l-0.4-0.4
		c-0.6-0.7-1-1.1-1-2V14c0-0.9,0-1.5,0.3-1.9c0.1-0.1,0.4-0.2,0.6-0.2v0.4l-0.3,1.3c0,0.1,0,0.1,0.1,0.2c0.1,0.1,0.2,0,0.2,0
		l0.9-1.1V7.1c0-0.1,0-0.4,0.2-0.6c0.1,0,0.2-0.1,0.4-0.1c0.3,0,0.4,0.3,0.4,0.4v3.8c0,0.3,0.2,0.5,0.4,0.5c0.3,0,0.4-0.3,0.4-0.4
		V9.5c0-0.1,0.1-0.4,0.4-0.4c0.3,0,0.4,0.1,0.4,0.4v1.2c0,0.3,0.2,0.5,0.4,0.5c0.3,0,0.4-0.3,0.4-0.4V10c0-0.1,0.1-0.3,0.4-0.3
		c0.2,0,0.3,0.1,0.3,0.1c0.2,0.1,0.2,0.4,0.2,0.4v0.7c0,0.3,0.2,0.4,0.4,0.4c0.3,0,0.4-0.1,0.4-0.4c0-0.1,0.1-0.2,0.2-0.3h0.2
		C16.8,10.9,16.9,11.8,16.9,12.1C16.9,12,16.9,12,16.9,12.1L16.9,12.1z M16.9,12.1"/>
</g>
<path class="st1" d="M16.9,12.1c0-0.3-0.1-1.2-0.6-1.3h-0.2c-0.1,0.1-0.2,0.2-0.2,0.3c0,0.3-0.2,0.4-0.4,0.4c-0.2,0-0.4-0.2-0.4-0.4
	v-0.7c0,0,0-0.3-0.2-0.4c0,0-0.1-0.1-0.3-0.1c-0.4,0-0.4,0.2-0.4,0.3v0.6c0,0.2-0.2,0.4-0.4,0.4c-0.3,0-0.4-0.3-0.4-0.5V9.4
	c0-0.3-0.2-0.4-0.4-0.4c-0.4,0-0.4,0.4-0.4,0.4v1.2c0,0.2-0.2,0.4-0.4,0.4c-0.3,0-0.4-0.3-0.4-0.5V6.8c0-0.1-0.1-0.4-0.4-0.4
	c-0.2,0-0.3,0.1-0.4,0.1c-0.2,0.2-0.2,0.5-0.2,0.6v5.7l-0.9,1.1c0,0-0.1,0.1-0.2,0c-0.1-0.1-0.1-0.1-0.1-0.2l0.3-1.3v-0.4
	c-0.3,0-0.5,0.1-0.6,0.2c-0.3,0.4-0.3,1-0.3,1.9v0.6c0,0.9,0.4,1.2,1,2l0.4,0.4c0.9,0.9,1.7,1.2,3.8,1.2c1.7,0,2.8-0.6,2.8-3.6V12.1
	z"/>
</svg>
