<?xml version="1.0" encoding="utf-8"?>
<!-- Generator: Adobe Illustrator 21.1.0, SVG Export Plug-In . SVG Version: 6.00 Build 0)  -->
<!DOCTYPE svg PUBLIC "-//W3C//DTD SVG 1.1//EN" "http://www.w3.org/Graphics/SVG/1.1/DTD/svg11.dtd">
<svg version="1.1" id="Layer_1" xmlns="http://www.w3.org/2000/svg" xmlns:xlink="http://www.w3.org/1999/xlink" x="0px" y="0px"
	 viewBox="0 0 1505 1034.7" style="enable-background:new 0 0 1505 1034.7;" xml:space="preserve">
<style type="text/css">
	.st0{opacity:0.43;fill:url(#SVGID_1_);}
	.st1{fill:#00BCF1;}
	.st2{fill:#231F20;}
	.st3{fill:#FFFFFF;}
	.st4{fill:#0054A5;}
</style>
<radialGradient id="SVGID_1_" cx="1653.1171" cy="545.0453" r="122.8883" gradientTransform="matrix(2.3299 0 0 0.233 -3121.7705 418.0547)" gradientUnits="userSpaceOnUse">
	<stop  offset="0" style="stop-color:#000000"/>
	<stop  offset="1" style="stop-color:#FFFFFF;stop-opacity:0"/>
</radialGradient>
<path class="st0" d="M1118.5,545c0,26.9-174,48.7-388.7,48.7c-214.7,0-388.7-21.8-388.7-48.7s174-48.7,388.7-48.7
	C944.5,496.4,1118.5,518.2,1118.5,545z"/>
<circle class="st1" cx="729.8" cy="294.2" r="250.8"/>
<ellipse class="st2" cx="729.8" cy="294.2" rx="182.2" ry="182.2"/>
<path class="st3" d="M676.1,181.2c0,26-21,47-47,47c-26,0-47-21-47-47c0-26,21-47,47-47C655,134.2,676.1,155.3,676.1,181.2z"/>
<g>
	<path class="st1" d="M66.4,802.7l21.5-64.2c1.5-4.4,3.9-8.2,7.2-11.3c3.3-3.1,7-4.7,11-4.7c6,0,11.3,1.5,15.9,4.5
		c4.6,3,6.9,7.2,6.9,12.6c0,4.8-1.3,10.6-3.8,17.4l-34.3,84.8c-2.8,7.3-5.9,12.8-9.4,16.5c-3.4,3.7-8.5,5.5-15.1,5.5
		c-10.6,0-18.3-6.4-23.1-19.1l-37-92.5c-1.3-3.5-1.9-7.7-1.9-12.7c0-5.4,2.3-9.6,6.9-12.6c4.6-3,9.9-4.5,15.9-4.5
		c3.9,0,7.5,1.5,10.6,4.6c3.1,3.1,5.4,6.8,6.8,11.1L66.4,802.7z"/>
	<path class="st1" d="M142.3,686.1c0-6.3,2.3-11.8,6.8-16.5c4.5-4.6,10-6.9,16.3-6.9c4.2,0,8,1.1,11.5,3.2c3.5,2.1,6.4,5,8.4,8.6
		c2.1,3.6,3.1,7.5,3.1,11.6c0,6.3-2.3,11.8-6.8,16.4c-4.5,4.7-10,7-16.3,7c-6.3,0-11.8-2.3-16.3-7
		C144.6,697.8,142.3,692.4,142.3,686.1z M145,841.6v-97c0-6.3,1.8-11.5,5.3-15.7c3.5-4.2,8.4-6.3,14.5-6.3c6.2,0,11.1,2.1,14.7,6.3
		c3.6,4.2,5.4,9.4,5.4,15.7v97c0,6.4-1.8,11.7-5.3,15.9c-3.6,4.2-8.5,6.4-14.8,6.4c-6.1,0-10.9-2.2-14.5-6.5
		C146.8,853.1,145,847.8,145,841.6z"/>
	<path class="st1" d="M208.6,766c0-11.4,3.9-21,11.7-28.8c10-10.5,22.7-15.8,38.3-15.8c14,0,25.8,3.3,35.4,9.8
		c7.6,5.4,11.4,11.2,11.4,17.4c0,4.4-1.6,8.5-4.8,12.1c-3.2,3.7-7.1,5.5-11.8,5.5c-2.5-0.2-7.8-2-15.8-5.4c-6.6-2.7-12-4-16.3-4
		c-6.1,0.4-9.3,2.6-9.5,6.5c0,2.5,1.2,4.6,3.6,6.5c2.4,1.9,5.4,3.5,8.9,4.9c3.5,1.4,6.3,2.5,8.4,3.3c14.6,5.5,24.8,11.2,30.5,17.1
		c6.5,7.2,9.8,15.2,9.8,24c0,6.4-1.3,12.6-3.9,18.5c-2.6,5.9-6.3,11-11.1,15.2c-9.2,8-21.4,12-36.7,12c-6.5,0-13.8-1-21.9-3
		c-8.1-2-15.2-5.2-21.2-9.6c-6-4.4-9-10-9-16.7c0-4.2,1.7-8.1,5-11.8c3.3-3.7,7.1-5.6,11.3-5.6c1.7,0,3.5,0.2,5.3,0.7
		c1.9,0.4,3.6,1,5,1.6c1.5,0.6,3.2,1.4,5.2,2.3c2,0.9,3.7,1.8,5.3,2.6c6.5,2.9,11.7,4.3,15.8,4.3c2.8,0,5.5-0.8,8.1-2.4
		c2.6-1.6,3.9-3.7,3.9-6.3c0-3.3-1.3-5.6-3.8-7.1c-2.5-1.4-6.4-3.2-11.8-5.1l-10.8-4c-11.1-4.3-19.6-9.3-25.6-15
		C211.6,783.7,208.6,775.9,208.6,766z"/>
	<path class="st1" d="M448.7,744.5v63.6c0,14-3.3,25-9.8,32.9c-5.9,7.6-13.6,13.5-22.9,17.5c-9.4,4.1-19.1,6.1-29.3,6.1
		c-10,0-19.8-2-29.2-6.1c-9.4-4.1-17.1-9.9-23-17.5c-6.5-8.5-9.8-19.4-9.8-32.9v-63.6c0-6.3,1.8-11.5,5.3-15.7
		c3.5-4.2,8.4-6.3,14.5-6.3c6.2,0,11.1,2.1,14.7,6.3c3.6,4.2,5.4,9.4,5.4,15.7v58.7c0,7.5,2.1,13.2,6.2,17.1
		c4.3,4.4,9.5,6.6,15.7,6.6c5.9,0,11.2-2.2,15.8-6.6c4.2-3.9,6.2-9.6,6.2-17.1v-58.7c0-6.3,1.8-11.5,5.3-15.7
		c3.6-4.2,8.5-6.3,14.8-6.3c6.1,0,11,2.1,14.5,6.3C446.9,732.9,448.7,738.2,448.7,744.5z"/>
	<path class="st1" d="M558.3,848.1c-4.8,5.8-9.8,10.1-14.8,12.7c-5.1,2.6-11.3,3.9-18.6,3.9c-14.5,0-27.5-5.1-39.2-15.2
		c-15.8-14-23.6-32.9-23.6-56.5c0-21.9,7-39.6,20.9-53.3c12.2-12.2,25.9-18.3,41.1-18.3c7.3,0,13.5,1.2,18.7,3.7
		c5.1,2.5,10.4,6.5,15.9,12.1c4.1-9.8,10.5-14.6,19.3-14.6c5.7,0,10.5,2,14.5,5.9c3.9,3.9,5.9,8.8,5.9,14.5v97.3
		c0,6.5-1.9,12.1-5.6,16.8c-3.7,4.6-8.8,6.9-15,6.9C568.4,863.9,562,858.6,558.3,848.1z M502,792.3c0,9.4,2.2,17.6,6.6,24.6
		c4.4,7,11,10.5,19.8,10.5c5.9,0,11-1.6,15.4-4.7c4.4-3.1,7.7-7.3,10-12.4c2.3-5.1,3.4-10.5,3.4-16.1c0-10.3-2.4-18.8-7.1-25.5
		c-4.7-6.7-12-10.1-21.8-10.1c-8.2,0-14.7,3.5-19.4,10.4C504.3,775.9,502,783.7,502,792.3z"/>
	<path class="st1" d="M658.9,684.6v156.9c0,6.4-1.8,11.7-5.3,15.9c-3.6,4.2-8.5,6.4-14.8,6.4c-6.1,0-10.9-2.2-14.5-6.5
		c-3.6-4.3-5.4-9.6-5.4-15.8V684.6c0-3.9,0.8-7.6,2.3-11c1.6-3.4,3.8-6.1,6.9-8c3-1.9,6.6-2.9,10.7-2.9c6.2,0,11.1,2.1,14.7,6.3
		C657.1,673.2,658.9,678.4,658.9,684.6z"/>
	<path class="st1" d="M679.8,727.1c0-3.3,1.2-6,3.6-8c2.4-2.1,5.3-3.1,8.7-3.1c3.4,0,6.1,1,8.2,3.1c2.1,2.1,3.2,5.1,3.2,9.2v4.6h0.5
		c9.1-11.6,21.5-17.3,37.2-17.3c16.6,0.5,29.6,8.6,38.9,24.4c6.5-9.1,13.5-15.4,20.9-19c7.4-3.6,15.6-5.4,24.8-5.4
		c8.9,0.2,17.2,2.4,24.7,6.7c7.5,4.2,13.5,10.3,17.9,18.2c4.4,7.9,6.6,17.1,6.6,27.6v84c0,3.6-1.2,6.4-3.6,8.6
		c-2.4,2.1-5.3,3.2-8.7,3.2c-3,0-5.7-1.1-8.1-3.3c-2.4-2.2-3.6-5-3.6-8.5v-82.4c0-7.1-1.3-13.2-4-18.2c-2.7-5.1-6.3-8.9-10.9-11.4
		c-4.6-2.5-9.7-3.8-15.4-3.8c-9.1,0-16.7,2.7-22.8,8c-6,5.3-9.1,13.8-9.1,25.4v82.4c0,3.5-1.2,6.2-3.6,8.2c-2.4,2-5.3,3-8.6,3
		c-3.1,0-5.8-1-8.2-3c-2.3-2-3.5-4.7-3.5-8.1v-81.3c0-11.8-2.9-20.5-8.8-26.1c-5.9-5.6-13.2-8.4-21.9-8.4
		c-5.8,0.2-11.1,1.4-15.6,3.6c-4.6,2.2-8.3,5.6-11.1,10.3c-2.8,4.7-4.2,10.7-4.2,17.9v84c0,3.6-1.2,6.4-3.5,8.6
		c-2.4,2.1-5.2,3.2-8.4,3.2c-3.1,0-5.8-1.1-8.2-3.2c-2.3-2.2-3.5-5-3.5-8.5V727.1z"/>
	<path class="st1" d="M992.2,734.9V727c0-3.5,1.1-6.3,3.3-8.4c2.2-2.1,4.8-3.2,7.9-3.2c3.1,0,5.8,1.1,7.9,3.3c2.2,2.2,3.2,5.2,3.2,9
		v123.7c0,4.1-1.1,7.1-3.2,9.2c-2.1,2.1-4.8,3.1-8,3.1c-3,0-5.6-1-7.8-3c-2.2-2-3.3-4.7-3.3-8.1v-10.6h-0.5
		c-10.2,14.1-22.8,21.3-37.8,21.7c-12.2,0-23.2-3-33.2-9.1c-10-6-17.8-14.6-23.5-25.8c-5.7-11.2-8.5-24-8.5-38.5
		c0-16.3,3.1-30.1,9.4-41.4c6.2-11.3,14.2-19.7,23.8-25.2c9.6-5.5,19.3-8.2,29.1-8.2c8.7,0,16.2,1.5,22.4,4.6c6.2,3,12.3,8,18.4,15
		H992.2z M912.6,789.6c0,9.3,1.4,18.1,4.3,26.2c2.9,8.1,7.2,14.7,12.9,19.7c5.8,5,12.8,7.5,21.1,7.5c14.6,0,25-5.2,31.3-15.6
		c6.3-10.4,9.5-23,9.5-37.7c0-10.9-1.6-20.3-4.9-28.5s-7.9-14.3-13.8-18.6c-6-4.3-12.8-6.4-20.4-6.4H952
		c-12.9,0.5-22.7,5.6-29.2,15.5C916.2,761.3,912.8,774,912.6,789.6z"/>
	<path class="st1" d="M1032.4,847.6c-3.7-2.6-5.9-6.4-6.6-11.7c0-2.9,1-5.4,3-7.5c2-2.1,4.4-3.2,7.4-3.2c2.3,0,4.6,0.6,6.9,1.9
		c2.3,1.3,5.2,3.2,8.6,5.6c3.4,2.5,5.8,4,7.3,4.7c5.4,3.1,12.1,4.9,20.1,5.5c7.7,0,14.6-1.6,20.6-4.8c6-3.2,9-8.2,9-15.1
		c0-6.6-3.7-12-11.1-16.3c-3.9-2.5-10.9-5.7-20.9-9.7c-10.1-4-17.8-7.4-23.3-10.2c-5.5-2.8-10.3-6.8-14.6-12
		c-4.2-5.2-6.4-11.6-6.4-19.3c0-7.1,2-13.7,5.9-19.8c3.9-6,9.5-10.9,16.7-14.5c7.2-3.6,15.4-5.6,24.7-6c8.9,0,17.4,1.5,25.8,4.5
		c8.3,3,14.4,6.3,18.3,9.9c3.8,3.9,5.7,7.6,5.7,11.1c0,2.7-1,5-3.1,7.1c-2.1,2.1-4.6,3.2-7.5,3.5c-3.1-0.8-7.6-2.9-13.4-6.2
		c-5.9-3.4-10.2-5.7-12.9-7c-2.7-1.3-6.2-2-10.4-2.2c-8.5,0-15,1.7-19.3,5.3c-4.4,3.5-6.7,7.8-7,13c0.8,4.4,2.9,8.2,6.3,11.3
		c3.4,3.2,7.3,5.8,11.8,7.8c4.4,2,9.8,4.1,16.1,6.2c6.3,2.1,10.6,3.8,13,4.9c10.7,4.4,18.5,9.5,23.2,15.3c4.7,5.8,7,13,7,21.4
		c-0.2,7.4-2.3,14.3-6.3,20.6c-4,6.4-9.9,11.5-17.9,15.5c-8,4-17.8,6.1-29.4,6.2C1060.8,863.6,1045,858.3,1032.4,847.6z"/>
	<path class="st1" d="M1152.7,737.7h-10.6c-3.4,0-6.1-1-8.2-2.9c-2-1.9-3.2-4.3-3.6-7.1c0.7-7.1,4.6-10.6,11.7-10.6h10.6v-32.4
		c0-3.5,1.1-6.3,3.4-8.2c2.3-1.9,5-2.9,8.3-2.9c3.5,0,6.4,1,8.7,3c2.3,2,3.5,4.9,3.5,8.8V717h10.6c3.6,0,6.4,1,8.3,2.9
		c1.9,1.9,2.9,4.5,2.9,7.7c0,2.7-0.9,5-2.8,7c-1.9,2-4.3,3-7.2,3h-11.7v114.2c0,3.6-1.2,6.5-3.7,8.6c-2.5,2.1-5.5,3.2-9,3.2
		c-3.1,0-5.8-1.1-7.9-3.2c-2.1-2.1-3.2-5.1-3.2-9.1V737.7z"/>
	<path class="st1" d="M1190.4,788.2c0.5-12.4,3.4-24.1,8.5-35.2c5.1-11.1,12.4-20.1,21.9-27c9.5-6.9,20.6-10.4,33.5-10.6
		c12.5,0,23.6,3.4,33.3,10.1c9.7,6.7,17.2,15.7,22.4,26.8c5.3,11.1,7.9,22.7,7.9,34.9c0,7.8-4.4,11.7-13.3,11.7h-90.3
		c0.2,9.6,2.2,17.8,6.2,24.4c3.9,6.6,9.2,11.6,15.8,14.8c6.6,3.3,13.9,4.9,22,4.9c14.1,0,27.1-5,38.9-15c4.1-2.9,7.1-4.4,9-4.4
		c2.7,0,4.7,1,6.2,3c1.5,2,2.2,4.4,2.2,7.2c0,3-1.2,5.9-3.5,8.7c-5.3,5.6-12.8,10.6-22.6,14.8c-9.8,4.2-20.3,6.4-31.5,6.4
		c-11.8,0-22-2.2-30.7-6.7c-8.7-4.5-15.7-10.4-21-17.7c-5.3-7.3-9.2-15.3-11.6-23.8c-2.4-8.5-3.7-17.1-3.8-25.9
		c0.2-0.4,0.4-0.8,0.4-1C1190.4,788.4,1190.4,788.3,1190.4,788.2z M1214.3,780.6h79.7c-0.3-13.3-3.8-24-10.6-32.1
		c-6.8-8.1-16.2-12.3-28-12.5c-12.1,0-21.8,3.9-29.2,11.7C1218.8,755.6,1214.9,766.5,1214.3,780.6z"/>
	<path class="st1" d="M1330.2,728.2c0-3.8,1.1-6.8,3.4-9c2.3-2.2,5-3.3,8.3-3.3c3.3,0,6.1,1.1,8.5,3.3c2.3,2.2,3.5,5.2,3.5,9v12.2
		h0.5c3.5-6.3,8.2-12,14-17c5.8-5.1,11.8-7.7,18.2-8c3.5,0,6.7,1.2,9.4,3.5c2.7,2.3,4.1,5.3,4.1,8.8c0,4.1-1.4,7.1-4.2,9
		c-2.8,1.9-6.9,3.6-12.2,5c-5.4,1.4-8.8,2.5-10.4,3.4c-12.9,7-19.3,19.1-19.3,36.1v70.2c0,3.9-1.1,6.9-3.3,9.1
		c-2.2,2.1-4.9,3.2-8.1,3.2c-3.4,0-6.3-1.1-8.7-3.4c-2.4-2.3-3.6-5.4-3.6-9.4V728.2z"/>
	<path class="st1" d="M1401.4,847.6c-3.7-2.6-5.9-6.4-6.6-11.7c0-2.9,1-5.4,3-7.5c2-2.1,4.4-3.2,7.4-3.2c2.3,0,4.6,0.6,6.9,1.9
		c2.3,1.3,5.2,3.2,8.6,5.6c3.4,2.5,5.8,4,7.3,4.7c5.4,3.1,12.1,4.9,20.1,5.5c7.7,0,14.6-1.6,20.6-4.8c6-3.2,9-8.2,9-15.1
		c0-6.6-3.7-12-11.1-16.3c-3.9-2.5-10.9-5.7-20.9-9.7c-10.1-4-17.8-7.4-23.3-10.2c-5.5-2.8-10.3-6.8-14.6-12
		c-4.2-5.2-6.4-11.6-6.4-19.3c0-7.1,2-13.7,5.9-19.8c3.9-6,9.5-10.9,16.7-14.5c7.2-3.6,15.4-5.6,24.7-6c8.8,0,17.4,1.5,25.8,4.5
		c8.3,3,14.4,6.3,18.3,9.9c3.8,3.9,5.7,7.6,5.7,11.1c0,2.7-1,5-3.1,7.1c-2.1,2.1-4.6,3.2-7.5,3.5c-3.1-0.8-7.6-2.9-13.4-6.2
		c-5.9-3.4-10.2-5.7-12.9-7c-2.7-1.3-6.2-2-10.4-2.2c-8.5,0-15,1.7-19.3,5.3c-4.4,3.5-6.7,7.8-7,13c0.8,4.4,2.9,8.2,6.3,11.3
		c3.4,3.2,7.3,5.8,11.8,7.8c4.4,2,9.8,4.1,16.1,6.2c6.3,2.1,10.6,3.8,13,4.9c10.7,4.4,18.5,9.5,23.2,15.3c4.7,5.8,7,13,7,21.4
		c-0.2,7.4-2.3,14.3-6.3,20.6c-4,6.4-9.9,11.5-17.9,15.5c-8,4-17.8,6.1-29.4,6.2C1429.8,863.6,1414,858.3,1401.4,847.6z"/>
</g>
<path class="st3" d="M525.9,147.7c10.7,20,31.7,33.5,56,33.5c35.1,0,63.5-28.4,63.5-63.5c0-20.3-9.6-38.3-24.4-49.9
	C583,86.1,550.3,113.8,525.9,147.7z"/>
<path class="st4" d="M772,952.4c0,6.3-5.1,11.4-11.4,11.4c-6.3,0-11.4-5.1-11.4-11.4c0-6.3,5.1-11.4,11.4-11.4
	C766.9,941,772,946.1,772,952.4z"/>
<g>
	<path class="st4" d="M43.9,973.6L34.6,944h-0.2L25,973.6c-0.9,2.8-2.4,4-4.7,4c-2.3,0-3.8-1.2-4.7-4L3.6,937.1
		c-0.2-0.6-0.3-1.2-0.3-1.7c0-2.2,1.5-3.8,3.9-3.8c2,0,3.2,1.1,3.9,3.4l9.5,30.6h0.2l9.4-30.1c0.8-2.7,2.2-3.9,4.3-3.9
		c2.2,0,3.5,1.1,4.3,3.9l9.6,30.1h0.2l9.3-30.6c0.7-2.3,1.9-3.4,3.9-3.4c2.3,0,3.8,1.6,3.8,3.8c0,0.5-0.1,1.1-0.3,1.7l-12,36.5
		c-0.9,2.8-2.4,4-4.6,4C46.3,977.7,44.7,976.4,43.9,973.6z"/>
	<path class="st4" d="M76,966c-0.9-2.8-1.5-6-1.5-11.4c0-5.4,0.5-8.6,1.4-11.4c2.5-7.8,9-12.1,17.6-12.1c8.8,0,15.2,4.3,17.7,12
		c1,3,1.5,6.5,1.5,10.9c0,1.8-1.2,3-3.1,3H83.1c-0.4,0-0.6,0.2-0.6,0.6c0,2.2,0.2,3.7,0.7,5.5c1.7,5.2,5.8,7.8,11.4,7.8
		c4.4,0,7.4-1.3,10.8-3.9c0.9-0.7,1.8-1.1,2.7-1.1c1.9,0,3.3,1.4,3.3,3.3c0,1.1-0.5,2.1-1.2,2.8c-3.9,3.6-9.2,6.2-16.2,6.2
		C84.8,978.2,78.5,973.9,76,966z M104,950.8c0.4,0,0.6-0.2,0.6-0.6c0-2.1-0.2-3.7-0.7-5.1c-1.5-4.5-5.3-7.1-10.4-7.1
		c-5.1,0-8.8,2.5-10.4,7.1c-0.5,1.4-0.7,3-0.7,5.1c0,0.4,0.2,0.6,0.6,0.6H104z"/>
	<path class="st4" d="M125.4,973.4V917c0-2.6,1.7-4.2,4-4.2c2.3,0,4,1.6,4,4.2v20.1h0.1c2.1-3.5,6-6,12.8-6
		c7.6,0,13.2,4.2,15.5,11.3c1.1,3.6,1.6,7.1,1.6,12.2c0,5.2-0.5,8.7-1.6,12.3c-2.4,7.1-7.9,11.3-15.5,11.3c-6.7,0-10.6-2.4-12.8-6
		h-0.1v1.2c0,2.6-1.7,4.2-4,4.2C127.1,977.7,125.4,976.1,125.4,973.4z M154.2,963.8c0.8-2.4,1-5.3,1-9.2c0-3.9-0.2-6.7-1-9.1
		c-1.5-4.5-4.9-7.1-9.9-7.1c-5.1,0-8.5,2.5-10,7.1c-0.8,2.4-1,5.3-1,9.1c0,3.9,0.2,6.8,1,9.2c1.5,4.5,4.9,7.1,10,7.1
		C149.3,970.9,152.7,968.4,154.2,963.8z"/>
	<path class="st4" d="M203.4,973.4v-1.2h-0.1c-2.2,3.6-6.1,6-12.8,6c-7.6,0-13.2-4.2-15.5-11.3c-1.1-3.6-1.6-7.2-1.6-12.3
		c0-5.1,0.5-8.7,1.6-12.2c2.4-7.1,7.9-11.3,15.5-11.3c6.8,0,10.7,2.5,12.8,6h0.1V917c0-2.6,1.7-4.2,4-4.2c2.3,0,4,1.6,4,4.2v56.5
		c0,2.6-1.7,4.2-4,4.2C205,977.7,203.4,976.1,203.4,973.4z M202.3,963.8c0.8-2.4,1-5.3,1-9.2c0-3.9-0.2-6.7-1-9.1
		c-1.5-4.5-4.9-7.1-10-7.1c-5,0-8.4,2.5-9.9,7.1c-0.8,2.4-1,5.3-1,9.1c0,3.9,0.2,6.8,1,9.2c1.5,4.5,4.9,7.1,9.9,7.1
		C197.4,970.9,200.8,968.4,202.3,963.8z"/>
	<path class="st4" d="M225.5,966c-0.9-2.8-1.5-6-1.5-11.4c0-5.4,0.5-8.6,1.4-11.4c2.5-7.8,9-12.1,17.6-12.1c8.8,0,15.2,4.3,17.7,12
		c1,3,1.5,6.5,1.5,10.9c0,1.8-1.2,3-3.1,3h-26.4c-0.4,0-0.6,0.2-0.6,0.6c0,2.2,0.2,3.7,0.7,5.5c1.7,5.2,5.8,7.8,11.4,7.8
		c4.4,0,7.4-1.3,10.8-3.9c0.9-0.7,1.8-1.1,2.7-1.1c1.9,0,3.3,1.4,3.3,3.3c0,1.1-0.5,2.1-1.2,2.8c-3.9,3.6-9.2,6.2-16.2,6.2
		C234.3,978.2,228,973.9,225.5,966z M253.5,950.8c0.4,0,0.6-0.2,0.6-0.6c0-2.1-0.2-3.7-0.7-5.1c-1.5-4.5-5.3-7.1-10.4-7.1
		c-5.1,0-8.8,2.5-10.4,7.1c-0.5,1.4-0.7,3-0.7,5.1c0,0.4,0.2,0.6,0.6,0.6H253.5z"/>
	<path class="st4" d="M284.5,972.8l-13.6-35.4c-0.3-0.8-0.4-1.3-0.4-2c0-2.1,1.5-3.8,3.9-3.8c1.9,0,3.1,1.1,3.8,2.8l11.7,31.3h0.2
		l11.4-31.3c0.7-1.7,1.9-2.8,3.8-2.8c2.4,0,3.9,1.7,3.9,3.8c0,0.7-0.1,1.2-0.4,2l-13.7,35.4c-1.4,3.7-2.6,4.9-5.2,4.9
		C287.1,977.7,285.9,976.4,284.5,972.8z"/>
	<path class="st4" d="M318.6,966c-0.9-2.8-1.5-6-1.5-11.4c0-5.4,0.5-8.6,1.4-11.4c2.5-7.8,9-12.1,17.6-12.1c8.8,0,15.2,4.3,17.7,12
		c1,3,1.5,6.5,1.5,10.9c0,1.8-1.2,3-3.1,3h-26.4c-0.4,0-0.6,0.2-0.6,0.6c0,2.2,0.2,3.7,0.7,5.5c1.7,5.2,5.8,7.8,11.4,7.8
		c4.4,0,7.4-1.3,10.8-3.9c0.9-0.7,1.8-1.1,2.7-1.1c1.9,0,3.3,1.4,3.3,3.3c0,1.1-0.5,2.1-1.2,2.8c-3.9,3.6-9.2,6.2-16.2,6.2
		C327.4,978.2,321.1,973.9,318.6,966z M346.6,950.8c0.4,0,0.6-0.2,0.6-0.6c0-2.1-0.2-3.7-0.7-5.1c-1.5-4.5-5.3-7.1-10.4-7.1
		c-5.1,0-8.8,2.5-10.4,7.1c-0.5,1.4-0.7,3-0.7,5.1c0,0.4,0.2,0.6,0.6,0.6H346.6z"/>
	<path class="st4" d="M378.8,977.7c-8.1,0-11-3.9-11-12V917c0-2.6,1.7-4.2,4-4.2c2.3,0,3.9,1.6,3.9,4.2v48.2c0,3.8,1.2,5.2,4.3,5.2
		c2.3,0,3.7,1.5,3.7,3.7c0,2.2-1.4,3.7-4,3.7H378.8z"/>
	<path class="st4" d="M393.1,966.1c-1-3.1-1.5-6.2-1.5-11.5c0-5.2,0.5-8.3,1.5-11.4c2.4-7.7,9-12.1,17.8-12.1
		c8.8,0,15.3,4.4,17.8,12.1c1,3.1,1.5,6.2,1.5,11.4c0,5.3-0.5,8.4-1.5,11.5c-2.4,7.6-9,12.1-17.8,12.1
		C402.1,978.2,395.5,973.7,393.1,966.1z M421,963.8c0.8-2.4,1-4.9,1-9.2c0-4.3-0.3-6.7-1-9.1c-1.5-4.5-5.2-7.1-10.2-7.1
		c-5,0-8.7,2.5-10.2,7.1c-0.8,2.4-1,4.8-1,9.1c0,4.3,0.3,6.8,1,9.2c1.5,4.5,5.2,7.1,10.2,7.1C415.8,970.9,419.5,968.4,421,963.8z"/>
	<path class="st4" d="M442.9,990.4v-54.5c0-2.6,1.7-4.2,4-4.2c2.3,0,4,1.6,4,4.2v1.2h0.1c2.2-3.6,6.1-6,12.8-6
		c7.6,0,13.2,4.2,15.5,11.3c1.1,3.6,1.6,7.1,1.6,12.3c0,5.1-0.5,8.7-1.6,12.2c-2.4,7.1-7.9,11.3-15.5,11.3c-6.8,0-10.7-2.5-12.8-6
		h-0.1v18.2c0,2.6-1.7,4.2-4,4.2C444.6,994.6,442.9,993,442.9,990.4z M471.7,963.8c0.8-2.4,1-5.3,1-9.1c0-4-0.2-6.8-1-9.2
		c-1.5-4.5-4.9-7.1-9.9-7.1c-5.1,0-8.5,2.5-10,7.1c-0.8,2.4-1,5.3-1,9.2c0,3.9,0.2,6.7,1,9.1c1.5,4.5,4.9,7.1,10,7.1
		C466.8,970.9,470.2,968.4,471.7,963.8z"/>
	<path class="st4" d="M493.5,935.9c0-2.6,1.7-4.2,4-4.2c2.3,0,4,1.6,4,4.2v1.3h0.1c2.4-3.7,6.5-6.1,12.6-6.1
		c6.2,0,10.7,2.6,13.2,7.1h0.1c3-4.2,7.5-7.1,14.6-7.1c10.2,0,16.1,6.4,16.1,16.9v25.4c0,2.6-1.7,4.2-4,4.2c-2.3,0-4-1.6-4-4.2
		v-23.5c0-7.2-3.3-11.5-10.1-11.5c-6.1,0-10.4,4.3-10.4,11v24c0,2.6-1.7,4.2-3.9,4.2c-2.3,0-4-1.6-4-4.2v-23.5
		c0-7.2-3.3-11.5-10.1-11.5c-6.1,0-10.4,4.3-10.4,11v24c0,2.6-1.7,4.2-4,4.2c-2.3,0-4-1.6-4-4.2V935.9z"/>
	<path class="st4" d="M571.8,966c-0.9-2.8-1.5-6-1.5-11.4c0-5.4,0.5-8.6,1.4-11.4c2.5-7.8,9-12.1,17.6-12.1c8.8,0,15.2,4.3,17.7,12
		c1,3,1.5,6.5,1.5,10.9c0,1.8-1.2,3-3.1,3H579c-0.4,0-0.6,0.2-0.6,0.6c0,2.2,0.2,3.7,0.7,5.5c1.7,5.2,5.8,7.8,11.4,7.8
		c4.4,0,7.4-1.3,10.8-3.9c0.9-0.7,1.8-1.1,2.7-1.1c1.9,0,3.3,1.4,3.3,3.3c0,1.1-0.5,2.1-1.2,2.8c-3.9,3.6-9.2,6.2-16.2,6.2
		C580.7,978.2,574.4,973.9,571.8,966z M599.9,950.8c0.4,0,0.6-0.2,0.6-0.6c0-2.1-0.2-3.7-0.7-5.1c-1.5-4.5-5.3-7.1-10.4-7.1
		c-5.1,0-8.8,2.5-10.4,7.1c-0.5,1.4-0.7,3-0.7,5.1c0,0.4,0.2,0.6,0.6,0.6H599.9z"/>
	<path class="st4" d="M621.3,935.9c0-2.6,1.7-4.2,4-4.2c2.3,0,4,1.6,4,4.2v1.3h0.1c2.2-3.5,6.5-6.1,12.6-6.1
		c9.8,0,15.6,6.7,15.6,16.9v25.4c0,2.6-1.7,4.2-3.9,4.2c-2.3,0-4-1.6-4-4.2v-23.5c0-7.2-3.3-11.5-10.1-11.5c-6.1,0-10.4,4.3-10.4,11
		v24c0,2.6-1.7,4.2-4,4.2c-2.3,0-4-1.6-4-4.2V935.9z"/>
	<path class="st4" d="M686,977.7c-9.2,0-12.6-3.9-12.6-13.3v-25.3c0-0.4-0.2-0.6-0.6-0.6h-2.5c-2.2,0-3.4-1.3-3.4-3.2
		c0-1.9,1.2-3.2,3.4-3.2h2.5c0.4,0,0.6-0.2,0.6-0.6v-9.9c0-2.6,1.7-4.2,3.9-4.2c2.3,0,4,1.6,4,4.2v9.9c0,0.4,0.2,0.6,0.6,0.6h5.9
		c2.2,0,3.4,1.3,3.4,3.2c0,1.9-1.2,3.2-3.4,3.2h-5.9c-0.4,0-0.6,0.2-0.6,0.6v25c0,4.8,1.2,6.2,6,6.2c2.4,0,3.9,1.5,3.9,3.7
		c0,2.2-1.4,3.7-4.2,3.7H686z"/>
</g>
<g>
	<path class="st4" d="M828.7,966.8c-1-3.1-1.5-6.2-1.5-11.5c0-5.2,0.5-8.3,1.5-11.4c2.4-7.7,9-12.1,17.8-12.1
		c8.8,0,15.3,4.4,17.8,12.1c1,3.1,1.5,6.2,1.5,11.4c0,5.3-0.5,8.4-1.5,11.5c-2.4,7.6-9,12.1-17.8,12.1
		C837.7,979,831.1,974.4,828.7,966.8z M856.6,964.6c0.8-2.4,1-4.9,1-9.2c0-4.3-0.3-6.7-1-9.1c-1.5-4.5-5.2-7.1-10.2-7.1
		c-5,0-8.7,2.5-10.2,7.1c-0.8,2.4-1,4.8-1,9.1c0,4.3,0.3,6.8,1,9.2c1.5,4.5,5.2,7.1,10.2,7.1C851.5,971.6,855.1,969.1,856.6,964.6z"
		/>
	<path class="st4" d="M878.5,936.6c0-2.6,1.7-4.2,4-4.2c2.3,0,4,1.6,4,4.2v1.3h0.1c2.2-3.5,6.5-6.1,12.6-6.1
		c9.8,0,15.6,6.7,15.6,16.9v25.4c0,2.6-1.7,4.2-3.9,4.2c-2.3,0-4-1.6-4-4.2v-23.5c0-7.2-3.3-11.5-10.1-11.5c-6.1,0-10.4,4.3-10.4,11
		v24c0,2.6-1.7,4.2-4,4.2c-2.3,0-4-1.6-4-4.2V936.6z"/>
	<path class="st4" d="M940.5,978.4c-8.1,0-11-3.9-11-12v-48.6c0-2.6,1.7-4.2,4-4.2c2.3,0,3.9,1.6,3.9,4.2v48.2
		c0,3.8,1.2,5.2,4.3,5.2c2.3,0,3.7,1.5,3.7,3.7c0,2.2-1.4,3.7-4,3.7H940.5z"/>
	<path class="st4" d="M954.7,918.6c0-2.9,2.4-5.2,5.2-5.2c2.8,0,5.2,2.3,5.2,5.2c0,2.8-2.4,5.2-5.2,5.2
		C957.1,923.8,954.7,921.5,954.7,918.6z M956,936.6c0-2.6,1.7-4.2,4-4.2c2.3,0,4,1.6,4,4.2v37.5c0,2.6-1.7,4.2-4,4.2
		c-2.3,0-4-1.6-4-4.2V936.6z"/>
	<path class="st4" d="M979.3,936.6c0-2.6,1.7-4.2,4-4.2c2.3,0,4,1.6,4,4.2v1.3h0.1c2.2-3.5,6.5-6.1,12.6-6.1
		c9.8,0,15.6,6.7,15.6,16.9v25.4c0,2.6-1.7,4.2-3.9,4.2c-2.3,0-4-1.6-4-4.2v-23.5c0-7.2-3.3-11.5-10.1-11.5c-6.1,0-10.4,4.3-10.4,11
		v24c0,2.6-1.7,4.2-4,4.2c-2.3,0-4-1.6-4-4.2V936.6z"/>
	<path class="st4" d="M1029.3,966.7c-0.9-2.8-1.5-6-1.5-11.4c0-5.4,0.5-8.6,1.4-11.4c2.5-7.8,9-12.1,17.6-12.1
		c8.8,0,15.2,4.3,17.7,12c1,3,1.5,6.5,1.5,10.9c0,1.8-1.2,3-3.1,3h-26.4c-0.4,0-0.6,0.2-0.6,0.6c0,2.2,0.2,3.7,0.7,5.5
		c1.7,5.2,5.8,7.8,11.4,7.8c4.4,0,7.4-1.3,10.8-3.9c0.9-0.7,1.8-1.1,2.7-1.1c1.9,0,3.3,1.4,3.3,3.3c0,1.1-0.5,2.1-1.2,2.8
		c-3.9,3.6-9.2,6.2-16.2,6.2C1038.2,979,1031.9,974.6,1029.3,966.7z M1057.4,951.5c0.4,0,0.6-0.2,0.6-0.6c0-2.1-0.2-3.7-0.7-5.1
		c-1.5-4.5-5.3-7.1-10.4-7.1s-8.8,2.5-10.4,7.1c-0.5,1.4-0.7,3-0.7,5.1c0,0.4,0.2,0.6,0.6,0.6H1057.4z"/>
	<path class="st4" d="M1101.5,936.6c0-2.6,1.7-4.2,4-4.2c2.3,0,4,1.6,4,4.2v1.3h0.1c2.4-3.7,6.5-6.1,12.6-6.1
		c6.2,0,10.7,2.6,13.2,7.1h0.1c3-4.2,7.5-7.1,14.6-7.1c10.2,0,16.1,6.4,16.1,16.9v25.4c0,2.6-1.7,4.2-4,4.2c-2.3,0-4-1.6-4-4.2
		v-23.5c0-7.2-3.3-11.5-10.1-11.5c-6.1,0-10.4,4.3-10.4,11v24c0,2.6-1.7,4.2-3.9,4.2c-2.3,0-4-1.6-4-4.2v-23.5
		c0-7.2-3.3-11.5-10.1-11.5c-6.1,0-10.4,4.3-10.4,11v24c0,2.6-1.7,4.2-4,4.2c-2.3,0-4-1.6-4-4.2V936.6z"/>
	<path class="st4" d="M1218,974.6c0,2.2-1.7,3.8-4,3.8c-1.4,0-2.5-0.7-3.5-2l-1.8-2.8h-0.1c-3,3.4-7.2,5.4-13.8,5.4
		c-10.1,0-15.9-5-15.9-13.5c0-9.3,6.4-13.9,17.6-13.9h10.3c0.4,0,0.6-0.2,0.6-0.6v-2.2c0-6.3-2.9-9.9-10.8-9.9
		c-3.5,0-7.1,1.1-9.2,2.3c-0.7,0.4-1.6,0.7-2.3,0.7c-2.1,0-3.4-1.3-3.4-3.4c0-1.2,0.6-2.4,1.9-3.2c2.8-1.9,7.5-3.4,13.7-3.4
		c12,0,17.7,5.7,17.7,16.8v16.2c0,2.4,0.2,3.3,0.8,4.6l1.6,2.9C1217.7,973,1218,973.9,1218,974.6z M1207.2,963.3v-5
		c0-0.4-0.2-0.6-0.6-0.6h-9c-7.7,0-11.2,2.3-11.2,7.3c0,4.7,3.4,7.1,9.4,7.1C1202.8,972.2,1207.2,968.9,1207.2,963.3z"/>
	<path class="st4" d="M1230,974.2v-37.5c0-2.6,1.7-4.2,4-4.2c2.3,0,4,1.6,4,4.2v2.1h0.1c1.9-4.1,6-6.9,11.6-6.9
		c3.1,0,5.2,0.8,6.7,1.6c1.6,0.8,2.3,2.1,2.3,3.4c0,2.3-1.6,4-4,4c-0.6,0-1.3-0.2-2-0.5c-1.7-0.7-3.3-1.1-5.2-1.1
		c-6.8,0-9.5,5.6-9.5,13.2v21.8c0,2.6-1.7,4.2-4,4.2C1231.7,978.4,1230,976.8,1230,974.2z"/>
	<path class="st4" d="M1268.3,917.7c0-2.6,1.7-4.2,4-4.2c2.3,0,4,1.6,4,4.2v36.9l18.4-20.8c0.8-0.9,1.8-1.4,3-1.4
		c1.8,0,3.3,1.3,3.3,3.3c0,1-0.4,1.8-1.1,2.6l-10.4,11.4l14.2,22.8c0.5,0.8,0.7,1.5,0.7,2.4c0,2-1.6,3.6-3.8,3.6
		c-1.5,0-2.7-0.7-3.7-2.3l-12.7-20.8l-7.9,8.8v10c0,2.6-1.7,4.2-4,4.2c-2.3,0-4-1.6-4-4.2V917.7z"/>
	<path class="st4" d="M1314.1,966.7c-0.9-2.8-1.5-6-1.5-11.4c0-5.4,0.5-8.6,1.4-11.4c2.5-7.8,9-12.1,17.6-12.1
		c8.8,0,15.2,4.3,17.7,12c1,3,1.5,6.5,1.5,10.9c0,1.8-1.2,3-3.1,3h-26.4c-0.4,0-0.6,0.2-0.6,0.6c0,2.2,0.2,3.7,0.7,5.5
		c1.7,5.2,5.8,7.8,11.4,7.8c4.4,0,7.4-1.3,10.8-3.9c0.9-0.7,1.8-1.1,2.7-1.1c1.9,0,3.3,1.4,3.3,3.3c0,1.1-0.5,2.1-1.2,2.8
		c-3.9,3.6-9.2,6.2-16.2,6.2C1322.9,979,1316.6,974.6,1314.1,966.7z M1342.1,951.5c0.4,0,0.6-0.2,0.6-0.6c0-2.1-0.2-3.7-0.7-5.1
		c-1.5-4.5-5.3-7.1-10.4-7.1c-5.1,0-8.8,2.5-10.4,7.1c-0.5,1.4-0.7,3-0.7,5.1c0,0.4,0.2,0.6,0.6,0.6H1342.1z"/>
	<path class="st4" d="M1377.1,978.4c-9.2,0-12.6-3.9-12.6-13.3v-25.3c0-0.4-0.2-0.6-0.6-0.6h-2.5c-2.2,0-3.4-1.3-3.4-3.2
		c0-1.9,1.2-3.2,3.4-3.2h2.5c0.4,0,0.6-0.2,0.6-0.6v-9.9c0-2.6,1.7-4.2,3.9-4.2c2.3,0,4,1.6,4,4.2v9.9c0,0.4,0.2,0.6,0.6,0.6h5.9
		c2.2,0,3.4,1.3,3.4,3.2c0,1.9-1.2,3.2-3.4,3.2h-5.9c-0.4,0-0.6,0.2-0.6,0.6v25c0,4.8,1.2,6.2,6,6.2c2.4,0,3.9,1.5,3.9,3.7
		c0,2.2-1.4,3.7-4.2,3.7H1377.1z"/>
	<path class="st4" d="M1392.2,918.6c0-2.9,2.4-5.2,5.2-5.2c2.8,0,5.2,2.3,5.2,5.2c0,2.8-2.4,5.2-5.2,5.2
		C1394.6,923.8,1392.2,921.5,1392.2,918.6z M1393.5,936.6c0-2.6,1.7-4.2,4-4.2c2.3,0,4,1.6,4,4.2v37.5c0,2.6-1.7,4.2-4,4.2
		c-2.3,0-4-1.6-4-4.2V936.6z"/>
	<path class="st4" d="M1416.8,936.6c0-2.6,1.7-4.2,4-4.2c2.3,0,4,1.6,4,4.2v1.3h0.1c2.2-3.5,6.5-6.1,12.6-6.1
		c9.8,0,15.6,6.7,15.6,16.9v25.4c0,2.6-1.7,4.2-3.9,4.2c-2.3,0-4-1.6-4-4.2v-23.5c0-7.2-3.3-11.5-10.1-11.5c-6.1,0-10.4,4.3-10.4,11
		v24c0,2.6-1.7,4.2-4,4.2c-2.3,0-4-1.6-4-4.2V936.6z"/>
	<path class="st4" d="M1494.6,937.7v-1.1c0-2.6,1.7-4.2,4-4.2c2.3,0,4,1.6,4,4.2v39.1c0,13.5-7.2,20.2-19.7,20.2
		c-5.9,0-11.6-2.5-14.3-5.4c-0.7-0.8-1.1-1.7-1.1-2.5c0-2.1,1.5-3.7,3.6-3.7c1.1,0,2.2,0.5,3.2,1.2c2.5,1.9,5.7,3,8.9,3
		c7.2,0,11.5-3.6,11.5-12.2v-4.9h-0.1c-2.3,3.8-6,5.9-12.6,5.9c-7.5,0-12.9-4.1-15.2-11.2c-1-3.2-1.5-6.6-1.5-11.6
		c0-5,0.5-8.4,1.5-11.6c2.3-7.1,7.6-11.2,15.2-11.2C1488.5,931.8,1492.3,934.4,1494.6,937.7L1494.6,937.7z M1493.5,963.1
		c0.8-2.2,1-4.7,1-8.5c0-3.7-0.3-6.2-1-8.4c-1.6-4.7-4.7-7.1-9.6-7.1c-4.9,0-8,2.4-9.6,7.1c-0.8,2.2-1,4.7-1,8.4
		c0,3.8,0.3,6.3,1,8.5c1.6,4.7,4.7,7.1,9.6,7.1C1488.8,970.1,1491.9,967.8,1493.5,963.1z"/>
</g>
</svg>
